<svg height="511pt" viewBox="-128 0 511 511.99927" width="511pt" xmlns="http://www.w3.org/2000/svg"><path d="m146.0625 0h-.003906v99.773438h.003906c27.550781 0 49.886719-22.335938 49.886719-49.886719s-22.335938-49.886719-49.886719-49.886719zm0 0" fill="#8bcaff"/><path d="m146.0625 0h-.003906v4.738281c16.9375 7.972657 28.660156 25.1875 28.660156 45.148438 0 19.957031-11.722656 37.171875-28.660156 45.148437v4.738282h.003906c27.550781 0 49.886719-22.335938 49.886719-49.886719s-22.335938-49.886719-49.886719-49.886719zm0 0" fill="#60b8ff"/><path d="m146.058594 0c-27.546875.00390625-49.882813 22.335938-49.882813 49.886719s22.332031 49.882812 49.882813 49.886719zm0 0" fill="#ff94d4"/><path d="m146.058594 4.738281v-4.738281c-3.640625 0-7.1875.402344-10.609375 1.144531 3.707031.800781 7.261719 2.015625 10.609375 3.59375zm0 0" fill="#ff73c6"/><path d="m135.449219 98.628906c3.421875.742188 6.96875 1.140625 10.609375 1.144532v-4.738282c-3.347656 1.578125-6.902344 2.789063-10.609375 3.59375zm0 0" fill="#ff73c6"/><path d="m197.703125 108.46875h-50.960937v243.839844h13.601562v140.371094c0 10.230468 7.953125 18.945312 18.175781 19.308593 10.734375.378907 19.558594-8.207031 19.558594-18.855469v-315.761718c0-5.667969 4.59375-10.265625 10.265625-10.265625 5.667969 0 10.265625 4.597656 10.265625 10.265625v115.316406c0 10.234375 7.953125 18.945312 18.179687 19.308594 10.734376.382812 19.554688-8.207032 19.554688-18.855469v-126.035156c0-32.382813-26.253906-58.636719-58.640625-58.636719zm0 0" fill="#8bcaff"/><path d="m179.347656 182.714844v310.417968c0 6.707032-3.6875 13.027344-9.503906 16.363282 2.339844 1.757812 5.945312 2.398437 8.796875 2.492187 3.222656.109375 6.460937-.636719 9.3125-2.132812 6.164063-3.226563 10.125-9.761719 10.125-16.722657v-315.761718c0-5.667969 4.59375-10.265625 10.265625-10.265625h-13.386719c-8.621093 0-15.609375 6.988281-15.609375 15.609375zm0 0" fill="#60b8ff"/><path d="m197.703125 108.46875h-18.730469c32.386719 0 58.640625 26.253906 58.640625 58.636719v126.035156c0 7.007813-3.828125 13.113281-9.503906 16.367187 2.761719 1.582032 5.953125 2.5 9.367187 2.5 10.417969 0 18.867188-8.445312 18.867188-18.867187v-126.035156c0-32.382813-26.253906-58.636719-58.640625-58.636719zm0 0" fill="#60b8ff"/><path d="m146.742188 108.46875h-50.953126c-26.578124 0-49.015624 17.6875-56.210937 41.933594l-.03125-.007813-38.351563 137.679688c-2.792968 10.039062 3.074219 20.445312 13.113282 23.238281 10.039062 2.796875 20.441406-3.074219 23.238281-13.113281l34.390625-123.46875c1.367188-4.910157 6.113281-8.167969 11.300781-7.546875 6.460938.769531 10.363281 6.96875 8.742188 13.269531l-42.601563 165.609375c-.816406 3.164062 1.574219 6.246094 4.839844 6.246094h41.195312v140.371094c0 10.230468 7.953126 18.945312 18.179688 19.308593 10.734375.378907 19.554688-8.207031 19.554688-18.855469v-140.824218h13.59375zm0 0" fill="#ff94d4"/><g fill="#ff73c6"><path d="m71.941406 174.730469c1.253906-4.507813 5.359375-7.625 10.035156-7.625h-18.730468c-4.675782 0-8.78125 3.117187-10.035156 7.625l-34.394532 123.46875c-1.386718 4.976562-4.644531 8.925781-8.796875 11.304687 1.328125.757813 2.75 1.382813 4.289063 1.808594 10.039062 2.796875 20.441406-3.074219 23.238281-13.113281zm0 0"/><path d="m114.417969 493.132812c0 6.988282-3.8125 13.074219-9.460938 16.332032 2.550781 1.5 5.484375 2.410156 8.636719 2.523437 10.734375.378907 19.554688-8.207031 19.554688-18.855469v-140.824218h-13.527344c-2.871094 0-5.203125 2.328125-5.203125 5.203125zm0 0"/></g></svg>