<?xml version="1.0" encoding="iso-8859-1"?>
<!-- Generator: Adobe Illustrator 21.0.0, SVG Export Plug-In . SVG Version: 6.00 Build 0)  -->
<svg xmlns="http://www.w3.org/2000/svg" xmlns:xlink="http://www.w3.org/1999/xlink" version="1.1" id="Capa_1" x="0px" y="0px" viewBox="0 0 512 512" style="enable-background:new 0 0 512 512;" xml:space="preserve" width="512" height="512">
<g>
	<path d="M497,180H339.549c42.209-48.703,132.013-152.323,134.432-155.114c2.315-2.64,3.719-6.099,3.719-9.886   c0-8.284-6.716-15-15-15h-79.4c-4.35,0-8.486,1.889-11.335,5.176L263.5,130.327L155.036,5.176C152.187,1.889,148.05,0,143.7,0H64.3   c-5.873,0-11.206,3.427-13.645,8.77c-2.439,5.342-1.537,11.616,2.31,16.054L187.45,180H15c-8.284,0-15,6.716-15,15v302   c0,8.284,6.716,15,15,15h482c8.284,0,15-6.716,15-15V195C512,186.716,505.284,180,497,180z M390.149,30h39.701l-130,150h-39.702   L390.149,30z M136.851,30l106.8,123.23L223.8,176.135L97.149,30H136.851z M482,482H30V210h452V482z"/>
	<path d="M181,286c0-24.813-20.187-45-45-45s-45,20.187-45,45s20.187,45,45,45S181,310.813,181,286z M136,301   c-8.271,0-15-6.729-15-15s6.729-15,15-15s15,6.729,15,15S144.271,301,136,301z"/>
	<path d="M136,331c-41.355,0-75,33.645-75,75c0,8.284,6.716,15,15,15h120c8.284,0,15-6.716,15-15C211,364.645,177.355,331,136,331z    M93.57,391c6.191-17.461,22.874-30,42.43-30s36.239,12.539,42.43,30H93.57z"/>
	<path d="M256,271h90c8.284,0,15-6.716,15-15s-6.716-15-15-15h-90c-8.284,0-15,6.716-15,15S247.716,271,256,271z"/>
	<path d="M256,331h181c8.284,0,15-6.716,15-15s-6.716-15-15-15H256c-8.284,0-15,6.716-15,15S247.716,331,256,331z"/>
	<path d="M256,391h181c8.284,0,15-6.716,15-15s-6.716-15-15-15H256c-8.284,0-15,6.716-15,15S247.716,391,256,391z"/>
	<circle cx="316" cy="436" r="15"/>
	<circle cx="376" cy="436" r="15"/>
	<circle cx="437" cy="436" r="15"/>
</g>















</svg>
